<?xml version="1.0" standalone="no"?>
<!DOCTYPE svg PUBLIC "-//W3C//DTD SVG 20010904//EN"
 "http://www.w3.org/TR/2001/REC-SVG-20010904/DTD/svg10.dtd">
<svg version="1.0" xmlns="http://www.w3.org/2000/svg"
 width="577.000000pt" height="433.000000pt" viewBox="0 0 577.000000 433.000000"
 preserveAspectRatio="xMidYMid meet">

<g transform="translate(0.000000,433.000000) scale(0.100000,-0.100000)"
fill="#000000" stroke="none">
<path d="M2866 4071 c-3 -4 -19 -11 -35 -14 -27 -6 -29 -10 -33 -59 -7 -96 -5
-98 71 -96 l66 1 -59 6 c-83 8 -88 31 -7 31 34 0 61 4 61 10 0 6 -27 10 -60
10 l-60 0 0 40 0 40 60 0 c37 0 60 4 60 11 0 7 -10 9 -26 5 -21 -6 -25 -4 -21
8 7 17 -8 22 -17 7z"/>
<path d="M842 3980 c2 -76 2 -78 5 -22 2 34 7 62 11 62 3 0 34 -28 68 -61 l62
-62 4 77 c1 42 0 76 -4 76 -5 0 -8 -28 -8 -62 l0 -62 -70 69 -70 69 2 -84z"/>
<path d="M1883 4045 c-35 -15 -49 -48 -39 -90 7 -29 52 -55 94 -55 33 0 78 31
87 59 10 32 -13 71 -50 86 -42 18 -51 18 -92 0z m119 -36 c48 -65 -58 -131
-126 -78 -33 26 -35 71 -3 94 35 25 105 16 129 -16z"/>
<path d="M2293 4045 c-17 -7 -34 -23 -38 -35 -7 -21 -8 -21 -26 9 -17 29 -23
31 -74 31 l-55 0 1 -77 c1 -43 4 -68 6 -55 4 18 11 22 38 22 37 0 85 18 85 32
0 19 18 6 24 -17 7 -29 52 -55 94 -55 33 0 78 31 87 59 10 32 -13 71 -50 86
-42 18 -51 18 -92 0z m119 -36 c49 -65 -59 -131 -126 -78 -29 23 -35 69 -12
88 42 35 108 30 138 -10z m-198 15 c19 -19 20 -25 3 -49 -10 -12 -28 -18 -58
-19 l-44 -1 -3 43 -3 42 45 0 c27 0 51 -6 60 -16z"/>
<path d="M3013 4053 c-43 -8 -78 -76 -55 -109 28 -41 101 -57 138 -29 17 13
15 13 -19 3 -31 -9 -44 -9 -71 5 -88 41 -28 142 68 116 38 -11 47 -3 12 11
-28 10 -34 11 -73 3z"/>
<path d="M3132 3980 c2 -76 2 -78 5 -22 2 34 7 62 11 62 3 0 34 -28 68 -61
l62 -62 4 77 c1 42 0 76 -4 76 -5 0 -8 -28 -8 -62 l0 -62 -70 69 -70 69 2 -84z"/>
<path d="M3420 4053 c-70 -25 -81 -107 -19 -138 37 -19 80 -19 105 1 19 15 19
16 -1 8 -36 -14 -93 -9 -114 11 -49 44 -4 113 69 107 3 0 19 -3 35 -6 l30 -6
-30 14 c-32 16 -50 18 -75 9z"/>
<path d="M3590 4053 c-70 -27 -81 -106 -19 -138 65 -34 148 0 149 62 0 50 -79
97 -130 76z m99 -37 c32 -34 22 -71 -23 -93 -54 -25 -126 7 -126 57 0 59 104
84 149 36z"/>
<path d="M4201 4043 c-93 -48 -35 -159 72 -139 21 4 37 11 37 17 0 6 -7 6 -19
-1 -42 -22 -102 -4 -121 38 -9 22 -8 30 8 51 17 23 27 26 75 26 58 0 64 10 12
20 -19 4 -43 -1 -64 -12z"/>
<path d="M4420 4042 c-30 -15 -35 -22 -38 -58 -3 -36 1 -45 25 -64 22 -17 37
-21 71 -17 53 6 82 31 82 69 0 42 -15 64 -51 77 -42 14 -48 14 -89 -7z m108
-18 c27 -19 29 -64 3 -88 -10 -9 -34 -19 -52 -22 -67 -11 -115 61 -72 108 20
23 90 24 121 2z"/>
<path d="M4592 3980 c2 -85 2 -85 5 -16 l4 69 69 -68 70 -69 -2 79 c-2 77 -2
77 -5 18 -2 -35 -6 -63 -8 -63 -3 0 -34 30 -70 68 l-64 67 1 -85z"/>
<path d="M791 3973 c2 -79 6 -70 11 25 2 28 0 52 -4 52 -5 0 -7 -35 -7 -77z"/>
<path d="M1032 4038 c-33 -33 2 -68 67 -68 16 0 35 -7 42 -16 11 -14 10 -18
-6 -31 -19 -14 -49 -13 -90 1 -20 8 -20 7 -1 -8 38 -30 116 -14 116 24 0 23
-28 40 -67 40 -16 0 -38 6 -48 14 -46 33 52 64 108 34 20 -10 21 -10 8 5 -16
20 -110 24 -129 5z"/>
<path d="M1207 4043 l32 -4 4 -72 3 -72 2 72 2 72 33 4 c17 2 1 4 -38 4 -38 0
-56 -2 -38 -4z"/>
<path d="M1343 3975 c0 -44 2 -61 4 -37 2 23 2 59 0 80 -2 20 -4 1 -4 -43z"/>
<path d="M1397 4043 l32 -4 4 -72 3 -72 2 72 2 72 33 4 c17 2 1 4 -38 4 -38 0
-56 -2 -38 -4z"/>
<path d="M1522 3998 c-2 -71 18 -98 73 -98 55 0 85 36 85 100 0 27 -4 50 -10
50 -6 0 -10 -26 -10 -58 0 -53 -2 -60 -25 -70 -65 -30 -103 -3 -108 76 l-3 57
-2 -57z"/>
<path d="M1723 4043 c26 -4 27 -6 27 -74 0 -39 4 -69 10 -69 6 0 10 30 10 69
0 68 1 70 28 74 15 2 -2 4 -38 4 -36 0 -53 -2 -37 -4z"/>
<path d="M2462 3978 l-2 -78 68 2 67 2 -62 3 -62 4 -4 72 -3 72 -2 -77z"/>
<path d="M2623 3975 c0 -44 2 -61 4 -37 2 23 2 59 0 80 -2 20 -4 1 -4 -43z"/>
<path d="M2677 4043 l32 -4 4 -72 3 -72 2 72 2 72 33 4 c17 2 1 4 -38 4 -38 0
-56 -2 -38 -4z"/>
<path d="M3323 3975 c0 -44 2 -61 4 -37 2 23 2 59 0 80 -2 20 -4 1 -4 -43z"/>
<path d="M3800 4037 c0 -9 5 -17 10 -17 6 0 36 -27 67 -60 30 -33 59 -60 64
-60 5 0 8 35 7 78 -1 56 -3 63 -5 27 -6 -84 -8 -84 -78 -15 -43 43 -65 59 -65
47z"/>
<path d="M4026 4005 c-15 -25 -33 -45 -40 -45 -8 0 -13 -13 -13 -32 -1 -31 0
-31 10 -10 9 20 17 22 78 22 59 0 68 -3 74 -20 3 -11 11 -20 17 -20 6 0 4 10
-4 23 -9 12 -30 46 -47 75 -18 28 -36 52 -41 52 -4 0 -20 -20 -34 -45z m63
-10 l20 -35 -49 0 -49 0 20 35 c12 19 25 35 29 35 4 0 17 -16 29 -35z"/>
<path d="M4343 3975 c0 -44 2 -61 4 -37 2 23 2 59 0 80 -2 20 -4 1 -4 -43z"/>
<path d="M4820 4005 c-17 -25 -36 -45 -42 -45 -5 0 -8 -7 -5 -15 4 -8 2 -17
-3 -20 -6 -4 -10 -12 -9 -18 0 -7 7 -2 16 11 13 19 24 22 79 22 54 0 65 -3 74
-21 7 -11 14 -19 16 -16 6 6 -78 146 -88 147 -4 0 -21 -20 -38 -45z m80 -37
c0 -5 -20 -8 -45 -8 -25 0 -45 3 -45 6 0 3 10 20 22 36 l21 31 24 -29 c12 -16
23 -32 23 -36z"/>
<path d="M4972 3978 l-2 -78 68 2 67 2 -62 3 -62 4 -4 72 -3 72 -2 -77z"/>
<path d="M1010 3730 l0 -30 913 2 912 3 3 28 3 27 -915 0 -916 0 0 -30z"/>
<path d="M2929 3733 l7 -28 947 -3 947 -2 0 30 0 30 -954 0 -954 0 7 -27z"/>
<path d="M1899 3412 c-30 -16 -324 -167 -654 -337 -689 -353 -687 -353 -765
-423 -107 -96 -136 -202 -85 -307 51 -106 128 -163 400 -295 211 -102 222
-106 260 -97 22 5 43 13 48 16 4 4 -104 61 -240 127 -291 140 -358 187 -407
281 -44 87 3 184 134 272 30 21 237 132 460 246 223 114 521 268 663 342 l259
133 371 -2 372 -3 -200 -119 c-603 -359 -925 -552 -962 -578 -66 -45 -111 -98
-134 -158 -50 -133 20 -249 208 -344 86 -43 91 -44 139 -34 l49 11 -120 58
c-129 61 -188 108 -219 173 -37 77 4 167 108 240 34 24 302 186 596 361 294
174 545 323 557 331 12 7 24 27 27 44 3 16 9 44 12 60 l6 30 -415 0 -414 0
-54 -28z"/>
<path d="M2994 3418 c3 -13 6 -28 6 -35 0 -9 86 -13 363 -15 l362 -3 140 -68
c77 -38 352 -169 610 -292 726 -344 728 -346 795 -421 66 -76 76 -147 34 -232
-42 -85 -95 -122 -373 -259 l-255 -127 49 -15 50 -16 230 114 c199 99 237 122
286 170 94 94 129 187 105 277 -30 113 -124 208 -286 286 -201 97 -1136 541
-1262 599 l-127 59 -367 0 -366 0 6 -22z"/>
<path d="M3470 2964 c0 -11 160 -93 235 -122 50 -18 164 -68 254 -110 175 -81
245 -132 281 -203 59 -115 -18 -224 -247 -349 -24 -13 -43 -27 -43 -31 0 -4
17 -10 39 -14 42 -7 84 14 198 97 160 117 175 291 36 418 -58 54 -368 206
-531 260 -103 34 -222 63 -222 54z"/>
<path d="M2191 2108 c2 -9 54 -90 114 -181 l110 -164 123 -62 c79 -39 122 -56
122 -47 0 7 -106 116 -236 242 -130 125 -235 221 -233 212z"/>
<path d="M3340 1885 c-129 -129 -228 -235 -220 -235 8 0 65 25 127 56 l111 56
116 172 c113 167 124 186 108 186 -4 0 -113 -106 -242 -235z"/>
<path d="M1291 1809 c79 -39 198 -97 264 -129 66 -32 197 -95 290 -141 l170
-83 230 -4 230 -4 -34 36 -35 36 -172 0 c-121 0 -183 4 -210 14 -22 8 -191 89
-378 180 l-339 166 -80 0 -79 0 143 -71z"/>
<path d="M4140 1700 l-355 -179 -216 0 -215 -1 -34 -35 -35 -36 265 3 265 3
423 213 424 212 -84 -1 -83 0 -355 -179z"/>
<path d="M1010 1130 l0 -30 900 0 c495 0 900 4 900 8 0 5 -10 18 -23 30 l-23
22 -877 0 -877 0 0 -30z"/>
<path d="M2965 1130 l-29 -30 947 0 947 0 0 30 0 30 -918 0 -918 0 -29 -30z"/>
<path d="M2027 880 c-54 -14 -108 -44 -141 -79 -24 -25 -30 -42 -34 -88 -3
-53 -1 -61 27 -95 40 -47 108 -73 236 -88 137 -16 199 -34 224 -66 39 -50 20
-98 -52 -136 -34 -18 -59 -22 -128 -23 -80 0 -91 3 -162 39 -77 39 -97 40 -97
6 0 -40 105 -92 213 -105 70 -9 169 8 222 38 88 49 114 154 55 221 -42 47 -87
63 -236 81 -148 18 -205 40 -229 85 -26 51 -3 94 70 133 34 18 57 22 150 22
125 0 164 -10 231 -61 49 -38 65 -41 84 -19 11 13 6 22 -28 54 -61 58 -136 83
-262 87 -58 2 -122 -1 -143 -6z"/>
<path d="M2760 874 c-161 -43 -259 -161 -260 -310 0 -55 5 -81 25 -121 70
-140 256 -224 431 -194 122 22 223 83 199 121 -10 16 -33 12 -78 -15 -62 -36
-161 -58 -224 -51 -227 27 -350 207 -258 375 22 41 45 64 88 92 113 73 247 78
374 13 71 -36 76 -37 89 -20 18 26 9 40 -44 69 -105 56 -229 71 -342 41z"/>
<path d="M3417 879 c-110 -26 -211 -103 -253 -194 -34 -72 -33 -172 2 -243 69
-138 261 -224 433 -193 285 51 412 315 245 509 -89 105 -274 157 -427 121z
m220 -64 c124 -37 213 -140 213 -245 -1 -102 -61 -184 -175 -237 -52 -24 -72
-28 -150 -27 -102 0 -170 24 -237 83 -45 39 -88 123 -88 169 0 116 103 231
234 263 53 12 150 10 203 -6z"/>
<path d="M4003 883 c-10 -4 -13 -75 -13 -308 0 -264 2 -304 16 -316 11 -9 20
-10 32 -2 15 9 18 41 22 263 l5 253 25 -30 c66 -80 200 -213 213 -213 8 0 63
52 122 115 59 63 111 115 116 115 5 0 9 -112 9 -249 0 -212 2 -250 15 -255 8
-3 22 -3 30 0 13 5 15 47 13 318 -4 385 7 373 -161 188 -152 -168 -143 -162
-171 -129 -77 89 -240 257 -250 256 -6 0 -17 -3 -23 -6z"/>
<path d="M1255 868 c-3 -7 -6 -94 -7 -193 l-3 -180 -32 -3 c-66 -6 -66 -58 0
-64 l32 -3 3 -80 c2 -48 8 -82 15 -87 7 -4 125 -8 264 -8 243 0 252 1 258 20
3 11 3 24 0 30 -4 6 -94 10 -241 10 l-234 0 0 60 0 60 243 2 242 3 0 25 0 25
-242 3 -243 2 0 165 0 165 238 0 c130 0 243 4 250 9 8 5 12 17 10 27 -3 18
-18 19 -276 22 -213 2 -274 0 -277 -10z"/>
</g>
</svg>
